<?xml version="1.0" encoding="UTF-8" standalone="no"?>
<!DOCTYPE svg PUBLIC "-//W3C//DTD SVG 1.1//EN" "http://www.w3.org/Graphics/SVG/1.1/DTD/svg11.dtd">
<svg width="100%" height="100%" viewBox="0 0 1400 452" version="1.1" xmlns="http://www.w3.org/2000/svg" xmlns:xlink="http://www.w3.org/1999/xlink" xml:space="preserve" xmlns:serif="http://www.serif.com/" style="fill-rule:evenodd;clip-rule:evenodd;stroke-linejoin:round;stroke-miterlimit:2;">
    <g id="Fondo" transform="matrix(1,0,0,1,-1.923359,-0.353198)">
        <path d="M955.469,37.716C990.437,37.716 991.943,37.359 999.128,40.083C999.891,40.372 1008.609,42.611 1017.83,52.473C1037.554,73.569 1033.698,109.628 1005.739,124.737C1001.179,127.201 998.773,127.244 1001.145,131.844C1003.016,135.471 1022.043,172.36 1024.412,177.24C1026.978,182.526 1033.167,194.43 1033.941,195.919C1036.108,200.087 1038.33,202.482 1033.637,202.689C1030.639,202.821 1020.654,202.659 1019.526,202.641C1019.193,202.636 1016.609,202.594 1015.492,201.63C1014.232,200.542 983.881,140.592 982.381,138.085C979.387,133.081 980.148,130.39 974.22,130.278C973.961,130.273 947.983,130.268 947.643,130.284C943.283,130.487 944.18,134.573 944.18,138.282C944.178,200.312 944.257,200.435 943.664,201.233C942.349,203.003 941.413,202.646 932.031,202.647C926.675,202.647 924.772,203.01 924.944,197.653C925.061,194.027 925.049,194.029 925.049,83.594C925.049,39.518 924.93,39.259 925.881,38.398C926.76,37.603 926.942,37.715 955.468,37.715L955.469,37.716Z"/>
        <path d="M402.419,77.857C402,78.237 401.58,78.617 401.161,78.997C401.679,86.219 401.67,88.703 401.671,91.406L401.671,197.652C401.629,199.236 401.611,201.898 399.224,202.372C398.502,202.515 385.406,202.457 385.147,202.424C384.892,202.391 382.977,202.141 382.483,200.626C382.229,199.846 382.257,199.833 382.257,66.407C382.257,39.379 382.042,38.838 383.519,38.155C384.42,37.738 387.898,37.719 388.281,37.717C400.681,37.65 400.949,37.759 402.084,38.617C403.508,39.693 414.926,59.762 416.897,63C422.155,71.638 430.197,85.192 431.344,87.127C468.456,149.68 468.305,149.763 471.602,155.16C473.944,158.993 473.244,159.365 475.487,162.29C476.085,163.07 476.198,163.234 477.073,162.754C478.378,162.039 477.512,159.019 477.458,152.345C477.452,151.64 477.451,41.596 477.458,41.412C477.615,37.34 479.551,37.717 483.592,37.717C491.519,37.717 494.923,37.507 495.934,38.461C497.046,39.511 496.763,44.584 496.763,47.657C496.763,199.953 496.805,199.983 496.415,200.956C495.742,202.632 494.015,202.513 482.03,202.455C476.076,202.426 476.492,200.925 473.635,196.456C470.733,191.915 464.62,181.448 463.853,180.133C463.291,179.17 457.97,170.059 456.718,168.164C455.75,166.699 455.891,166.638 454.973,165.135C453.978,163.507 448.075,153.847 442.743,144.669C435.183,131.656 408.605,87.531 404.484,79.781C403.493,77.917 403.751,77.799 403.591,77.717C403.241,77.537 402.769,78.039 402.419,77.858L402.419,77.857Z"/>
        <path d="M958.594,342.324L996.094,342.324C1000.808,342.326 1002.735,341.344 1002.854,346.073C1003.167,358.532 1002.718,358.908 1001.886,359.604C1000.899,360.43 1000.722,360.319 966.407,360.319C939.528,360.319 938.937,360.085 938.232,361.692C937.763,362.762 937.821,362.819 937.821,408.594C937.821,430.361 937.446,431.333 939.858,431.99C940.342,432.122 940.325,432.18 1011.721,432.169C1017.525,432.168 1019.968,430.908 1020.002,436.713C1020.069,447.801 1020.304,449.312 1017.842,450.222C1017.564,450.325 1017.56,450.331 927.345,450.328C922.099,450.328 919.982,451.322 919.93,446.089C919.929,446.033 919.929,257.153 919.93,257.037C919.955,254.146 919.899,253.534 922.713,252.966C923.237,252.86 1006.037,252.942 1013.282,252.949C1018.038,252.954 1019.824,252.285 1019.884,257.025C1020.046,269.824 1019.717,270.377 1017.898,270.867C1015.895,271.407 941.815,270.741 939.885,271.237C937.371,271.884 937.82,273.894 937.82,288.282C937.82,340.327 937.734,340.504 938.44,341.284C939.565,342.529 939.838,342.324 958.595,342.324L958.594,342.324Z"/>
        <path d="M699.219,182.655C715.023,182.655 724.086,182.653 724.184,182.662C728.077,182.996 727.55,185.915 727.551,188.281C727.553,199.739 728.29,202.12 724.229,202.467C724.026,202.484 645.187,202.504 644.519,202.453C644.254,202.433 642.293,202.283 641.722,200.669C641.442,199.877 641.472,199.86 641.472,64.844C641.472,39.396 641.23,38.791 642.864,38.09C643.903,37.644 643.959,37.711 719.531,37.708C723.803,37.708 727.402,36.789 727.545,41.397C727.553,41.652 727.555,53.567 727.536,53.922C727.521,54.209 727.402,56.512 725.796,57.07C724.338,57.576 724.279,57.299 666.407,57.33C662.061,57.332 660.782,57.398 660.911,61.726C661.19,71.123 661.017,71.097 661.017,80.47C661.017,108.297 660.829,108.721 662.142,109.522C663.319,110.239 663.457,109.893 707.031,109.997C712.008,110.009 713.555,109.862 713.587,114.843C713.665,127.302 713.702,128.646 711.897,129.295C709.936,130 665.268,129.164 663.066,129.782C660.218,130.582 661.017,134.314 661.017,138.283C661.017,180.85 660.903,181.088 661.801,181.944C662.663,182.765 662.864,182.657 699.219,182.657L699.219,182.655Z"/>
        <path d="M312.584,366.508C312.346,364.382 305.903,328.99 327.858,296.442C331.552,290.966 331.759,291.16 336.011,286.105C352.073,267.007 372.856,258.566 375.934,257.474C393.378,251.285 402.721,250.691 422.703,251.724C428.176,252.007 442.083,255.233 450.507,259.201C455.042,261.337 455.938,261.38 455.958,266.405C456.004,278.015 456.084,278.01 456.017,279.017C455.838,281.718 454.754,281.68 452.355,280.446C448.128,278.272 448.564,277.292 433.718,272.304C429.428,270.863 416.375,269.199 413.299,269.088C404.528,268.773 390.874,271.523 388.194,272.424C374.614,276.99 367.387,280.724 356.435,290.752C353.966,293.013 338.84,306.863 333.51,325.758C330.701,335.716 330.663,335.716 329.849,346.05C327.167,380.101 346.077,401.584 349.376,405.332C370.294,429.096 389.514,431.593 402.31,433.809C408.205,434.83 424.663,434.512 439.836,428.886C446.408,426.449 446.261,426.154 452.41,422.794C452.631,422.673 454.525,421.639 455.553,422.581C456.013,423.003 455.967,426.959 455.962,427.341C455.817,439.725 456.248,439.856 455.353,441.333C453.998,443.57 440.283,448.079 439.979,448.162C421.49,453.228 411.98,452.252 397.601,451.366C391.905,451.015 377.081,447.366 366.285,441.615C359.471,437.985 354.6,434.667 346.728,428.181C344.699,426.51 334.011,416.366 327.181,405.572C319.248,393.034 315.24,382.858 312.581,366.507L312.584,366.508Z"/>
        <path d="M857.031,182.658C897.296,182.658 897.277,182.541 900.774,182.658C903.566,182.751 904.215,182.504 904.929,185.226C904.978,185.413 905.026,199.01 905.02,199.189C905.012,199.438 904.949,201.317 903.729,202.025C902.887,202.514 902.805,202.457 844.53,202.457C820.999,202.457 820.249,202.759 819.521,200.786C819.175,199.849 819.213,199.824 819.213,86.72C819.213,39.796 819.111,39.606 819.943,38.648C821.031,37.395 825.748,37.717 828.905,37.717C903.16,37.717 903.299,37.651 903.95,38.214C904.901,39.035 905.483,39.538 905.047,53.883C905.039,54.142 904.979,56.126 903.81,56.871C902.951,57.418 902.844,57.315 846.092,57.322C843.529,57.322 839.138,56.462 838.836,60.209C838.802,60.635 838.807,106.631 838.833,106.988C838.849,107.221 838.973,108.974 840.148,109.601C841.043,110.079 841.114,110.012 871.092,110.012C888.922,110.012 889.272,109.77 890.467,111.243C891.2,112.146 891.345,112.325 891.093,125.772C891.064,127.291 891.108,129.107 888.382,129.529C887.852,129.611 843.586,129.548 842.974,129.568C840.164,129.658 839.543,129.413 838.764,132.106C838.705,132.31 838.714,133.343 838.714,158.596C838.714,180.737 838.519,181.013 839.775,182.13C840.504,182.779 843.182,182.66 857.03,182.66L857.031,182.658Z"/>
        <path d="M564.871,35.841C565.998,35.837 575.445,35.801 578.936,36.58C584.583,37.84 596.669,39.013 608.747,49.028C608.941,49.189 614.541,53.603 614.68,55.49C614.789,56.967 614.443,57.007 605.088,66.007C601.115,69.83 600.342,67.731 597.427,65.099C580.852,50.138 542.481,52.313 536.635,74.197C533.538,85.789 538.574,92.007 539.541,93.203C546.311,101.564 556.007,104.728 558.387,105.915C568.423,110.919 597.969,114.681 613.854,134.713C627.62,152.072 620.301,169.945 619.935,171.215C615.731,185.811 599.167,198.472 586.554,201.654C578.738,203.626 571.8,205.24 558.69,203.281C539.83,200.463 524.234,189.27 517.977,177.337C515.85,173.28 514.829,171.245 515.397,169.793C515.833,168.68 516.017,168.653 529.116,163.874C533.101,162.42 533.476,165.055 534.044,166.182C535.009,168.097 540.233,178.47 555.367,182.431C563.098,184.454 563.098,184.681 571.068,184.554C581.243,184.392 598.443,177.295 602.271,163.261C607.566,143.849 581.143,134.351 578.987,133.411C567.532,128.416 540.897,124.952 524.516,105.222C509.731,87.413 514.888,57.103 536.569,44.291C544.053,39.868 551.607,37.137 564.868,35.841L564.871,35.841Z"/>
        <path d="M1272.688,35.854C1273.815,35.846 1283.549,35.779 1286.768,36.464C1296.084,38.445 1307.969,39.799 1320.925,52.515C1325.38,56.888 1321.617,58.115 1317.096,62.436C1312.948,66.401 1311.205,68.953 1308.718,67.76C1308.444,67.629 1296.371,52.916 1271.161,55.969C1247.683,58.812 1245.144,72.935 1244.358,77.318C1241.601,92.7 1254.06,99.274 1259.953,102.716C1265.079,105.71 1275.885,109.376 1277.445,109.785C1284.26,111.572 1293.432,115.167 1294.797,115.702C1296.849,116.506 1309.284,121.379 1318.228,130.205C1321.937,133.865 1333.283,145.909 1330.027,164.771C1327.079,181.851 1312.301,199.922 1285.119,203.646C1266.69,206.17 1236.507,199.183 1225.036,174.545C1223.827,171.949 1222.663,171.9 1223.991,169.357C1224.511,168.36 1224.831,168.701 1237.005,164.041C1241.465,162.334 1241.457,164.627 1244.406,169.612C1246.353,172.903 1251.537,177.248 1255.397,179.051C1262.165,182.213 1262.203,182.106 1269.434,183.963C1272.819,184.832 1282.053,184.781 1285.233,183.857C1285.728,183.713 1291.367,182.075 1291.416,182.059C1296.742,180.34 1303.061,175.149 1303.21,175.013C1307.929,170.712 1313.735,161.345 1310.296,152.284C1306.546,142.403 1295.374,136.885 1289.521,134.345C1275.09,128.082 1251.917,124.923 1236.319,108.982C1235.089,107.725 1227.024,99.483 1225.377,89.923C1223.082,76.601 1226.874,66.809 1227.598,64.937C1237.325,39.816 1263.978,36.879 1272.689,35.853L1272.688,35.854Z"/>
        <path d="M146.103,36.01C154.008,36.182 153.932,36.757 161.788,37.833C168.053,38.691 182.433,43.723 183.569,46.108C184.587,48.247 184.068,48.353 184.171,61.722C184.174,62.109 184.205,66.14 183.728,66.535C181.718,68.199 179.276,63.883 168.129,59.717C152.126,53.736 140.413,55.051 129.03,57.605C115.276,60.691 104.185,71.04 102.394,72.711C92.833,81.632 83.706,93.581 81.766,116.387C81.216,122.857 82.76,136.459 87.131,145.908C94.74,162.357 106.063,170.269 109.844,173.092C113.881,176.106 124.51,181.486 131.946,182.539C143.544,184.18 143.626,185.422 155.37,183.146C160.449,182.162 160.648,182.87 169.682,179.31C175.294,177.098 179.96,173.985 180.244,173.786C181.812,172.687 181.776,172.656 182.018,172.611C182.219,172.574 183.771,172.286 184.188,173.967C184.191,173.979 184.177,190.949 184.123,191.455C183.794,194.507 182.241,195.96 169.726,199.842C156.434,203.965 151.513,202.701 146.065,203.765C145.974,203.783 143.492,205.653 124.365,201.615C119.141,200.512 112.375,197.298 111.374,196.823C109.987,196.164 104.387,194.194 95.668,187.264C94.19,186.089 82.62,177.675 73.114,161.464C58.163,135.968 57.795,97.382 78.424,70.735C83.899,63.663 87.349,59.55 97.368,51.946C99.469,50.352 111.036,41.573 127.322,38.171C128.066,38.015 128.107,38.324 136.707,36.66C140.575,35.911 144.575,36.042 146.102,36.011L146.103,36.01Z"/>
        <path d="M785.156,37.446C791.98,37.681 794.283,37.181 794.855,39.778C794.975,40.32 794.977,145.938 794.854,150.788C794.123,179.679 768.227,204.01 741.413,204.415C736.257,204.493 736.418,202.831 736.411,197.657C736.399,189.393 735.96,185.784 738.217,184.997C738.756,184.809 742.549,184.627 742.926,184.609C746.94,184.417 748.478,183.471 750.979,182.661C766.269,177.708 773.842,163.117 775.096,153.831C775.774,148.807 775.145,41.285 775.469,39.78C776.125,36.738 781.245,37.45 785.155,37.448L785.156,37.446Z"/>
    </g>
</svg>
