<?xml version="1.0" encoding="UTF-8" standalone="no"?>
<!DOCTYPE svg PUBLIC "-//W3C//DTD SVG 1.1//EN" "http://www.w3.org/Graphics/SVG/1.1/DTD/svg11.dtd">
<svg width="100%" height="100%" viewBox="0 0 1400 452" version="1.1" xmlns="http://www.w3.org/2000/svg" xmlns:xlink="http://www.w3.org/1999/xlink" xml:space="preserve" xmlns:serif="http://www.serif.com/" style="fill-rule:evenodd;clip-rule:evenodd;stroke-linejoin:round;stroke-miterlimit:2;">
    <g id="Fondo" transform="matrix(1,0,0,1,-1.923359,-0.353198)">
        <path d="M1174.219,228.054C820.055,228.084 465.89,228.115 111.726,228.145C97.527,228.063 94.585,227.167 93.16,226.733C86.365,224.664 86.325,224.86 83.549,224.514C83.317,224.485 81.733,224.288 80.735,223.708C80.642,223.654 80.837,223.137 75.677,221.487C73.126,220.671 73.147,220.7 72.883,220.565C72.693,220.468 72.607,220.208 72.406,220.14C71.484,219.826 70.508,219.699 69.571,219.435C69.12,219.308 68.653,219.201 68.246,218.969C68.032,218.847 67.986,218.517 67.766,218.407C66.925,217.986 65.97,217.825 65.127,217.407C64.904,217.296 64.844,216.975 64.629,216.848C64.225,216.611 63.747,216.531 63.318,216.342C62.054,215.786 60.45,214.204 59.834,213.884C59.015,213.459 58.123,213.186 57.306,212.758C57.083,212.641 56.961,212.375 56.737,212.262C55.914,211.848 54.999,211.627 54.188,211.189C53.956,211.064 53.886,210.738 53.662,210.6C53.272,210.361 52.756,210.36 52.39,210.085C52.123,209.884 52.107,209.456 51.854,209.238C50.906,208.426 50.664,208.827 49.743,208.006C48.888,207.244 48.936,207.22 48.009,206.517C36.346,197.668 33.844,193.583 31.778,191.675C30.009,190.041 30.004,190.089 29.418,189.434C28.259,188.137 28.376,188.088 27.24,186.805C27.022,186.559 26.653,186.461 26.472,186.187C25.522,184.749 25.751,184.647 24.734,183.253C23.825,182.009 19.779,175.989 19.635,175.717C17.34,171.376 16.523,171.232 14.943,167.91C14.18,166.305 13.859,166.504 13.233,164.865C13.092,164.497 11.803,161.125 11.369,160.309C10.877,159.387 10.792,159.444 10.496,158.464C9.77,156.065 9.749,156.103 8.779,153.825C8.47,153.098 8.843,152.985 5.722,144.437C5.34,143.392 4.397,136.153 3.302,132.188C0.834,123.25 2.312,100.235 2.915,97.801C4.283,92.279 4.234,92.293 5.207,86.673C5.761,83.472 6.399,83.65 8.214,77.252C8.352,76.764 8.448,76.265 8.586,75.777C8.718,75.31 8.823,74.83 9.025,74.388C9.112,74.196 9.359,74.104 9.438,73.908C9.798,73.016 10.02,72.075 10.328,71.163C10.506,70.635 10.665,70.715 13.128,64.779C13.66,63.496 15.759,60.042 15.835,59.892C16.051,59.468 16.16,58.996 16.362,58.566C16.873,57.477 18.465,55.851 18.839,55.116C19.051,54.7 19.164,54.24 19.354,53.814C20.316,51.658 20.86,52.019 22.511,49.111C22.869,48.48 23.828,46.792 27.857,41.782C29.577,39.643 29.527,39.611 31.623,37.821C31.75,37.712 32.506,37.067 33.065,36.309C33.314,35.972 33.415,35.539 33.677,35.212C33.891,34.946 34.254,34.827 34.467,34.561C34.721,34.244 34.845,33.842 35.053,33.494C35.956,31.981 36.263,32.276 36.629,31.931C36.892,31.683 36.995,31.294 37.26,31.048C37.545,30.784 37.967,30.698 38.247,30.429C38.514,30.172 38.598,29.76 38.866,29.504C39.142,29.239 39.562,29.161 39.843,28.902C40.095,28.67 40.166,28.276 40.432,28.06C40.643,27.888 40.85,28.224 43.318,26.26C43.672,25.979 47.57,22.877 47.724,22.727C48.201,22.26 47.895,21.951 49.326,21.235C49.72,21.038 50.16,20.925 50.524,20.676C50.763,20.513 50.867,20.197 51.099,20.023C51.447,19.762 51.905,19.668 52.24,19.39C52.878,18.859 52.659,18.603 53.953,18.037C54.37,17.854 54.837,17.774 55.224,17.533C55.463,17.384 55.555,17.066 55.78,16.897C56.13,16.636 56.599,16.551 56.925,16.261C57.181,16.034 57.076,15.393 58.61,14.866C60.008,14.385 60.072,14.719 61.438,14.194C61.642,14.116 61.745,13.869 61.941,13.773C63.542,12.996 63.529,13.023 65.105,12.237C65.455,12.062 68.647,10.47 69.515,10.113C71.147,9.442 71.027,9.247 72.67,8.613C73.112,8.442 73.59,8.352 74.003,8.119C74.214,8 74.284,7.702 74.496,7.583C75.671,6.923 80.081,6.32 80.221,6.271C81.337,5.882 84.174,4.122 86.687,3.709C87.936,3.504 90.403,3.609 93.128,2.809C95.345,2.158 95.307,2.097 97.594,1.812C100.826,1.41 100.65,0.544 103.9,0.486C107.967,0.413 1190.605,0.192 1292.976,0.559C1299.525,0.583 1299.682,0.025 1303.742,1.284C1307.551,2.466 1307.677,1.801 1311.537,2.906C1314.667,3.802 1317.559,3.588 1319.289,4.463C1319.48,4.559 1319.556,4.815 1319.747,4.912C1321.805,5.961 1325.347,6.639 1325.847,6.735C1326.077,6.779 1327.797,7.109 1328.652,7.569C1328.859,7.68 1328.933,7.97 1329.144,8.072C1330.103,8.532 1335.879,10.452 1336.259,10.736C1336.522,10.932 1336.615,11.302 1336.873,11.506C1338.41,12.725 1342.142,13.413 1342.699,13.773C1342.932,13.923 1342.964,14.289 1343.197,14.439C1343.584,14.687 1344.116,14.652 1344.488,14.922C1344.741,15.105 1344.729,15.529 1344.972,15.724C1346.024,16.566 1346.244,16.138 1347.334,16.925C1347.561,17.089 1347.68,17.38 1347.917,17.53C1348.298,17.772 1348.784,17.822 1349.154,18.08C1349.405,18.255 1349.485,18.611 1349.73,18.795C1350.782,19.586 1350.955,19.244 1352.041,20.025C1352.269,20.189 1352.388,20.482 1352.624,20.633C1353.001,20.875 1353.492,20.913 1353.849,21.184C1354.115,21.386 1354.173,21.785 1354.426,22.003C1354.741,22.273 1355.198,22.34 1355.511,22.612C1355.768,22.836 1355.841,23.225 1356.094,23.453C1356.297,23.636 1356.39,23.488 1358.797,25.543C1360.116,26.669 1360.276,26.415 1361.619,27.488C1361.88,27.697 1361.981,28.064 1362.241,28.275C1362.559,28.533 1363.011,28.595 1363.318,28.867C1363.585,29.103 1363.649,29.516 1363.913,29.756C1364.21,30.025 1364.664,30.078 1364.956,30.352C1365.227,30.607 1365.286,31.037 1365.552,31.298C1366.381,32.115 1366.632,31.733 1367.439,32.557C1367.703,32.826 1367.822,33.214 1368.082,33.485C1368.329,33.742 1368.728,33.837 1368.941,34.123C1368.946,34.129 1369.565,35.603 1370.832,36.959C1372.393,38.63 1372.717,38.186 1373.581,38.977C1373.848,39.221 1373.926,39.625 1374.18,39.883C1374.425,40.132 1374.848,40.182 1375.05,40.467C1376.024,41.846 1375.774,41.975 1376.792,43.336C1379.159,46.499 1378.919,46.647 1381.456,49.709C1383.216,51.833 1383.051,51.906 1384.481,54.27C1386.116,56.972 1386.064,56.974 1387.362,59.878C1387.805,60.871 1388.857,62.628 1388.997,62.861C1389.517,63.731 1389.682,63.612 1390.086,64.748C1391.491,68.7 1392.345,69.29 1392.52,69.728C1392.666,70.093 1392.541,70.132 1394.171,74.359C1395.107,76.786 1394.693,77.736 1396.511,81.853C1398.531,86.427 1397.712,86.642 1398.853,91.5C1401.129,101.191 1401.34,101.216 1401.17,122.655C1401.116,129.409 1399.687,134.222 1399.399,135.193C1398.921,136.804 1397.768,144.327 1397.167,145.899C1394.521,152.811 1395.214,153.047 1392.225,159.799C1391.797,160.767 1391.628,160.659 1391.252,161.641C1391.113,162.005 1389.755,165.556 1389.4,166.15C1388.851,167.07 1388.701,166.942 1388.244,167.939C1387.052,170.539 1385.581,176.66 1385.521,180.471C1385.377,189.628 1386.206,189.549 1386.584,192.981C1387.116,197.809 1386.512,201.362 1388.811,208.421C1388.975,208.924 1390.727,214.305 1390.653,214.772C1390.615,215.011 1390.364,216.585 1388.362,216.753C1386.175,216.936 1379.658,216.739 1378.901,216.717C1375.594,216.617 1375.242,215.514 1371.08,215.41C1343.929,214.732 1343.967,215.823 1342.897,216.155C1341.854,216.478 1338.642,216.936 1338.499,216.991C1338.304,217.065 1338.249,217.343 1338.065,217.443C1336.781,218.148 1336.635,217.744 1335.381,218.45C1335.17,218.569 1335.11,218.873 1334.9,218.992C1334.364,219.296 1332.359,219.789 1332.134,219.844C1329.69,220.445 1329.867,220.892 1327.458,221.501C1323.234,222.569 1323.336,223.178 1322.403,223.709C1321.388,224.287 1319.815,224.486 1319.582,224.515C1316.388,224.919 1316.382,224.834 1313.284,225.772C1310.619,226.58 1310.581,226.38 1310.354,226.459C1309.738,226.672 1309.197,227.071 1308.579,227.28C1305.965,228.164 1302.781,228.051 1174.223,228.051L1174.219,228.054Z" style="fill:rgb(247,178,27);"/>
        <path d="M1141.499,37.564C1150.849,38.664 1172.356,42.548 1193.411,67.609C1205.35,81.82 1208.563,96.337 1209.172,99.087C1210.217,103.807 1211.137,103.69 1211.697,117.97C1211.841,121.641 1211.409,132.948 1210.448,136.797C1207.122,150.128 1202.818,167.676 1179.109,186.978C1153.832,207.556 1113.886,210.388 1085.453,192.483C1082.922,190.889 1069.135,182.208 1058.742,166.313C1053.768,158.706 1046.547,145.732 1045.134,125.747C1044.337,114.473 1046.23,105.737 1046.599,104.036C1048.188,96.705 1051.684,73.232 1080.831,51.278C1083.845,49.008 1093.353,43.335 1100.646,40.977C1110.628,37.75 1110.745,38.3 1121.08,36.62C1130.3,35.122 1141.273,37.527 1141.499,37.564Z" style="fill:white;"/>
        <path d="M266.314,37.57C266.78,37.493 277.602,35.145 286.734,36.61C294.486,37.854 317.215,38.848 339.513,62.036C373.339,97.213 361.613,140.288 357.391,150.932C350.627,167.982 340.595,177.44 337.921,180.107C305.181,212.764 258.153,208.843 232.213,189.592C206.183,170.273 200.87,148.61 199.085,143.016C196.326,134.369 196.045,120.192 196.158,117.972C197.135,98.769 201.546,89.866 201.665,89.567C214.399,57.626 243.852,39.804 266.315,37.571L266.314,37.57Z" style="fill:white;"/>
        <path d="M847.684,253.179C855.156,253.4 866.462,254.025 879.406,264.203C907.639,286.403 903.323,320.734 890.955,337.964C889.644,339.79 884.529,346.449 880.53,349.294C876.59,352.098 874.101,354.593 866.541,357.41C864.903,358.02 862.286,358.731 862.037,360.254C861.712,362.238 862.345,362.17 875.133,387.042C877.618,391.876 905.783,446.655 906.096,447.524C906.485,448.601 906.668,448.714 905.918,449.545C905.122,450.427 905.059,450.402 903.871,450.417C889.17,450.606 889.009,450.493 887.966,449.762C886.327,448.614 886.464,448.398 873.026,422.468C852.436,382.738 842.792,363.084 841.251,361.918C839.964,360.945 839.778,361.084 800.78,361.082C796.368,361.082 794.691,360.422 794.6,364.846C794.565,366.552 794.662,446.957 794.545,447.658C794.133,450.117 791.693,450.202 791.367,450.213C778.598,450.66 778.048,450.104 777.251,449.301C776.499,448.542 776.591,448.343 776.591,396.093C776.591,262.212 776.602,262.218 776.492,257.04C776.417,253.497 778.178,253.193 780.423,253.144C784.383,253.058 836.021,253.295 844.526,253.035C844.779,253.027 844.76,253.046 847.682,253.178L847.684,253.179ZM853.789,271.748C855.857,272.341 872.92,275.536 880.351,294.572C880.702,295.47 882.104,301.147 882.281,302.31C883.931,313.153 879.468,325.398 871.931,332.865C871.44,333.351 865.386,338.453 861.741,339.893C852.474,343.555 852.215,343.107 811.72,343.107C798.415,343.107 795.65,343.519 794.854,341.289C794.584,340.533 794.596,340.512 794.599,278.907C794.599,273.414 793.73,271.248 799.22,271.231C846.387,271.082 849.441,271.357 853.789,271.748Z" style="fill:white;"/>
        <path d="M1164.753,450.401C1149.731,450.218 1147.628,451.052 1145.765,447.862C1145.444,447.313 1113.588,385.459 1113.406,385.089C1112.618,383.482 1112.538,383.559 1103.164,365.207C1100.753,360.487 1099.812,361.092 1094.531,361.081C1091.523,361.075 1057.729,361.01 1056.936,361.117C1054.35,361.468 1054.178,362.902 1054.139,364.851C1054.101,366.736 1054.206,446.99 1054.079,447.684C1053.665,449.949 1051.079,450.184 1050.745,450.214C1050.64,450.224 1040.053,450.226 1039.862,450.222C1036.487,450.152 1036.144,449.49 1036.105,446.106C1036.104,446.032 1036.104,257.092 1036.105,257.016C1036.211,252.199 1038.146,253.145 1042.967,253.14C1107.74,253.082 1107.755,252.775 1113.335,253.52C1126.251,255.245 1139.497,260.857 1151.095,277.131C1162.121,292.602 1167.131,326.588 1139.958,349.359C1134.978,353.532 1129.775,355.821 1129.207,356.111C1127.336,357.066 1122.265,358.716 1121.799,359.316C1121.7,359.444 1121.458,361.326 1121.525,361.589C1122.16,364.075 1122.937,363.704 1136.217,390.095C1144.909,407.368 1165.493,446.522 1165.582,447.463C1165.683,448.525 1165.39,449.562 1165.34,449.738C1165.208,450.205 1164.879,449.951 1164.753,450.399L1164.753,450.401ZM1114.678,342.248C1108.311,343.103 1108.305,343.127 1061.719,343.106C1056.212,343.104 1054.157,343.788 1054.137,338.279C1054.118,333.156 1053.912,276.766 1054.162,274.244C1054.496,270.875 1057.423,271.24 1058.596,271.232C1111.439,270.869 1112.056,271.082 1116.429,272.596C1118.902,273.452 1127.338,275.405 1135.624,286.381C1143.445,296.741 1146.866,318.49 1130.563,333.696C1123.999,339.819 1117.008,341.466 1114.677,342.248L1114.678,342.248Z" style="fill:white;"/>
        <path d="M703.934,253.18C707.749,253.295 724.227,252.83 739.907,267.902C747.57,275.268 759.448,289.526 755.925,316.469C754.675,326.028 748.572,338.375 739.329,347.108C734.586,351.59 729.483,354.305 728.548,354.803C721.916,358.333 718.467,358.234 718.176,360.217C717.919,361.973 718.427,361.904 728.133,380.85C756.539,436.303 756.495,436.311 757.479,438.039C758.909,440.547 760.797,444.301 761.074,444.852C761.237,445.176 762.702,448.088 762.645,449.103C762.633,449.315 762.349,449.406 762.207,449.564C761.09,450.812 760.848,450.371 757.03,450.352C748.129,450.309 744.94,450.778 743.176,449.025C742.008,447.864 726.185,416.232 721.831,408.213C720.575,405.9 706.541,378.494 705.217,375.907C698.501,362.792 698.47,362.746 697.454,361.974C696.106,360.949 695.916,361.08 660.156,361.081C657.154,361.081 652.28,360.717 651.291,362.116C650.65,363.022 650.724,363.146 650.724,436.718C650.724,447.083 651.469,449.973 647.612,450.21C647.415,450.222 635.555,450.257 635.254,450.168C632.671,449.405 632.922,448.797 632.887,446.109C632.885,445.981 632.887,258.612 632.886,258.592C632.799,254.514 632.619,253.242 636.669,253.145C640.335,253.057 692.196,253.296 700.776,253.035C701.029,253.027 701.01,253.046 703.933,253.179L703.934,253.18ZM710.035,271.754C716.851,273.742 723.893,275.496 732.303,286.52C743.517,301.22 741.573,332.17 713.345,341.581C708.089,343.333 707.963,343.105 658.593,343.105C656.63,343.105 651.761,343.66 651.002,341.319C650.706,340.407 650.721,340.389 650.724,278.905C650.724,276.494 650.345,273.328 651.766,272.007C652.73,271.111 652.929,271.23 685.155,271.23C704.182,271.23 704.162,271.156 710.034,271.753L710.035,271.754Z" style="fill:white;"/>
        <path d="M1122.705,184.465C1118.302,183.723 1118.323,183.762 1117.95,183.664C1111.43,181.953 1099.826,180.68 1085.49,167.595C1058.023,142.524 1058.407,102.653 1079.87,78.382C1095.804,60.364 1111.557,57.937 1114.888,57.256C1144.476,51.202 1169.401,64.559 1183.256,86.917C1188.959,96.12 1191.666,107.671 1191.992,113.241C1192.764,126.439 1191.818,137.999 1184.347,151.208C1168.134,179.87 1142.044,182.856 1139.804,183.449C1134.297,184.906 1131.578,184.628 1122.706,184.467L1122.705,184.465Z" style="fill:rgb(247,178,27);"/>
        <path d="M285.107,184.467C274.244,184.66 274.208,184.809 266.54,183.046C263.76,182.407 250.335,180.781 235.19,166.371C207.973,140.475 213.582,103.599 224.522,86.909C227.322,82.638 243.016,56.9 277.357,55.86C316.741,54.668 333.557,85.625 335.749,89.524C336.891,91.556 341.248,98.713 343.198,114.818C344.155,122.725 342.203,134.411 340.315,140.003C337.012,149.79 332.129,159.778 318.134,171.304C311.885,176.451 301.263,181.491 294.639,182.583C291.436,183.111 290.739,183.475 289.871,183.702C289.497,183.8 289.518,183.759 285.106,184.467L285.107,184.467Z" style="fill:rgb(247,178,27);"/>
        <path d="M589.843,253.141C591.436,253.08 591.409,253.034 592.981,253.022C603.543,252.938 607.117,252.683 607.902,254.287C608.292,255.084 608.25,255.125 608.25,433.594C608.25,448.312 608.86,450.018 605.425,450.33C605.085,450.361 593.431,450.365 593.02,450.323C592.795,450.3 591.069,450.123 590.572,448.905C590.018,447.549 590.396,418.878 590.294,405.462C590.268,402.034 590.116,401.227 586.704,401.074C586.379,401.059 516.616,401.068 516.409,401.07C511.135,401.119 511.153,403.419 507.494,408.892C506.668,410.127 499.674,421.423 498.998,422.515C495.672,427.886 485.866,443.502 485.238,444.583C482.192,449.824 481.836,450.345 475.782,450.35C462.928,450.362 461.88,450.677 461.675,449.233C461.419,447.427 463.5,445.33 464.22,444.146C471.267,432.55 471.452,432.672 472.06,431.661C477.403,422.79 517.512,359.229 519.743,355.595C520.885,353.735 568.436,277.975 569.732,275.902C579.678,259.995 579.801,260.093 580.604,258.675C584.287,252.165 585.75,253.035 589.844,253.14L589.843,253.141ZM589.652,279.544C590.074,279.886 590.496,280.228 590.918,280.57C590.187,288.489 590.471,288.488 590.427,375.781C590.427,376.357 591.142,381.793 588.44,382.529C587.874,382.683 587.859,382.664 536.719,382.664C528.144,382.664 528.148,382.962 527.414,382.842C525.477,382.525 525.089,382.325 525.337,380.393C525.367,380.16 543.988,350.893 547.846,344.646C562.51,320.904 562.816,321.132 564.088,319.069C565.708,316.439 577.652,297.058 584.574,286.342C588.677,279.99 587.906,279.432 588.513,279.191C588.883,279.044 589.283,279.69 589.653,279.544L589.652,279.544Z" style="fill:white;"/>
        <path d="M1170.517,449.99C1169.813,447.921 1169.744,447.945 1169.757,447.756C1169.837,446.661 1170.189,446.827 1170.837,445.927C1171.682,444.754 1174.711,439.911 1175.041,439.384C1176.109,437.676 1187.812,418.967 1188.357,418.016C1189.554,415.925 1232.643,347.63 1254.062,313.382C1256.085,310.147 1277.458,275.974 1279.405,272.978C1290.879,255.322 1290.246,252.896 1296.099,253.037C1299.264,253.114 1312.663,252.9 1313.233,252.979C1313.45,253.009 1315.158,253.244 1315.645,254.285C1315.939,254.913 1315.974,254.966 1315.964,442.968C1315.964,448.207 1316.936,450.321 1311.712,450.35C1299.634,450.417 1299.531,450.242 1298.876,449.59C1297.842,448.56 1297.986,448.326 1297.986,421.093C1297.986,403.279 1298.259,402.873 1296.584,401.624C1295.659,400.934 1293.681,401.068 1292.964,401.066C1287.464,401.051 1238.869,400.92 1224.219,401.069C1218.606,401.126 1218.668,403.838 1212.785,412.964C1199.817,433.08 1200.097,433.247 1198.922,434.964C1190.334,447.512 1191.722,450.24 1185.149,450.345C1184.03,450.363 1172.249,450.551 1171.154,450.442C1170.894,450.416 1170.775,450.016 1170.515,449.99L1170.517,449.99ZM1296.361,279.315C1298.472,280.509 1298.576,280.393 1298.624,280.595C1298.652,280.711 1298.673,280.8 1298.524,282.082C1297.534,290.602 1298.335,367.917 1298.081,378.923C1298.074,379.241 1298.012,381.911 1296.263,382.465C1295.543,382.693 1295.52,382.664 1244.531,382.664C1235.958,382.664 1235.96,382.983 1235.228,382.848C1232.244,382.295 1232.742,381.041 1234.394,378.497C1243.598,364.323 1254.013,347.39 1255.688,344.666C1257.354,341.957 1272.268,318.361 1274.371,314.943C1275.231,313.546 1290.577,289.208 1291.218,288.165C1294.176,283.346 1294.924,281.363 1296.361,279.316L1296.361,279.315Z" style="fill:white;"/>
        <path d="M955.469,37.716C990.437,37.716 991.943,37.359 999.128,40.083C999.891,40.372 1008.609,42.611 1017.83,52.473C1037.554,73.569 1033.698,109.628 1005.739,124.737C1001.179,127.201 998.773,127.244 1001.145,131.844C1003.016,135.471 1022.043,172.36 1024.412,177.24C1026.978,182.526 1033.167,194.43 1033.941,195.919C1036.108,200.087 1038.33,202.482 1033.637,202.689C1030.639,202.821 1020.654,202.659 1019.526,202.641C1019.193,202.636 1016.609,202.594 1015.492,201.63C1014.232,200.542 983.881,140.592 982.381,138.085C979.387,133.081 980.148,130.39 974.22,130.278C973.961,130.273 947.983,130.268 947.643,130.284C943.283,130.487 944.18,134.573 944.18,138.282C944.178,200.312 944.257,200.435 943.664,201.233C942.349,203.003 941.413,202.646 932.031,202.647C926.675,202.647 924.772,203.01 924.944,197.653C925.061,194.027 925.049,194.029 925.049,83.594C925.049,39.518 924.93,39.259 925.881,38.398C926.76,37.603 926.942,37.715 955.468,37.715L955.469,37.716Z" style="fill:white;"/>
        <path d="M402.419,77.857C402,78.237 401.58,78.617 401.161,78.997C401.679,86.219 401.67,88.703 401.671,91.406L401.671,197.652C401.629,199.236 401.611,201.898 399.224,202.372C398.502,202.515 385.406,202.457 385.147,202.424C384.892,202.391 382.977,202.141 382.483,200.626C382.229,199.846 382.257,199.833 382.257,66.407C382.257,39.379 382.042,38.838 383.519,38.155C384.42,37.738 387.898,37.719 388.281,37.717C400.681,37.65 400.949,37.759 402.084,38.617C403.508,39.693 414.926,59.762 416.897,63C422.155,71.638 430.197,85.192 431.344,87.127C468.456,149.68 468.305,149.763 471.602,155.16C473.944,158.993 473.244,159.365 475.487,162.29C476.085,163.07 476.198,163.234 477.073,162.754C478.378,162.039 477.512,159.019 477.458,152.345C477.452,151.64 477.451,41.596 477.458,41.412C477.615,37.34 479.551,37.717 483.592,37.717C491.519,37.717 494.923,37.507 495.934,38.461C497.046,39.511 496.763,44.584 496.763,47.657C496.763,199.953 496.805,199.983 496.415,200.956C495.742,202.632 494.015,202.513 482.03,202.455C476.076,202.426 476.492,200.925 473.635,196.456C470.733,191.915 464.62,181.448 463.853,180.133C463.291,179.17 457.97,170.059 456.718,168.164C455.75,166.699 455.891,166.638 454.973,165.135C453.978,163.507 448.075,153.847 442.743,144.669C435.183,131.656 408.605,87.531 404.484,79.781C403.493,77.917 403.751,77.799 403.591,77.717C403.241,77.537 402.769,78.039 402.419,77.858L402.419,77.857Z" style="fill:white;"/>
        <path d="M958.594,342.324L996.094,342.324C1000.808,342.326 1002.735,341.344 1002.854,346.073C1003.167,358.532 1002.718,358.908 1001.886,359.604C1000.899,360.43 1000.722,360.319 966.407,360.319C939.528,360.319 938.937,360.085 938.232,361.692C937.763,362.762 937.821,362.819 937.821,408.594C937.821,430.361 937.446,431.333 939.858,431.99C940.342,432.122 940.325,432.18 1011.721,432.169C1017.525,432.168 1019.968,430.908 1020.002,436.713C1020.069,447.801 1020.304,449.312 1017.842,450.222C1017.564,450.325 1017.56,450.331 927.345,450.328C922.099,450.328 919.982,451.322 919.93,446.089C919.929,446.033 919.929,257.153 919.93,257.037C919.955,254.146 919.899,253.534 922.713,252.966C923.237,252.86 1006.037,252.942 1013.282,252.949C1018.038,252.954 1019.824,252.285 1019.884,257.025C1020.046,269.824 1019.717,270.377 1017.898,270.867C1015.895,271.407 941.815,270.741 939.885,271.237C937.371,271.884 937.82,273.894 937.82,288.282C937.82,340.327 937.734,340.504 938.44,341.284C939.565,342.529 939.838,342.324 958.595,342.324L958.594,342.324Z" style="fill:white;"/>
        <path d="M699.219,182.655C715.023,182.655 724.086,182.653 724.184,182.662C728.077,182.996 727.55,185.915 727.551,188.281C727.553,199.739 728.29,202.12 724.229,202.467C724.026,202.484 645.187,202.504 644.519,202.453C644.254,202.433 642.293,202.283 641.722,200.669C641.442,199.877 641.472,199.86 641.472,64.844C641.472,39.396 641.23,38.791 642.864,38.09C643.903,37.644 643.959,37.711 719.531,37.708C723.803,37.708 727.402,36.789 727.545,41.397C727.553,41.652 727.555,53.567 727.536,53.922C727.521,54.209 727.402,56.512 725.796,57.07C724.338,57.576 724.279,57.299 666.407,57.33C662.061,57.332 660.782,57.398 660.911,61.726C661.19,71.123 661.017,71.097 661.017,80.47C661.017,108.297 660.829,108.721 662.142,109.522C663.319,110.239 663.457,109.893 707.031,109.997C712.008,110.009 713.555,109.862 713.587,114.843C713.665,127.302 713.702,128.646 711.897,129.295C709.936,130 665.268,129.164 663.066,129.782C660.218,130.582 661.017,134.314 661.017,138.283C661.017,180.85 660.903,181.088 661.801,181.944C662.663,182.765 662.864,182.657 699.219,182.657L699.219,182.655Z" style="fill:white;"/>
        <path d="M312.584,366.508C312.346,364.382 305.903,328.99 327.858,296.442C331.552,290.966 331.759,291.16 336.011,286.105C352.073,267.007 372.856,258.566 375.934,257.474C393.378,251.285 402.721,250.691 422.703,251.724C428.176,252.007 442.083,255.233 450.507,259.201C455.042,261.337 455.938,261.38 455.958,266.405C456.004,278.015 456.084,278.01 456.017,279.017C455.838,281.718 454.754,281.68 452.355,280.446C448.128,278.272 448.564,277.292 433.718,272.304C429.428,270.863 416.375,269.199 413.299,269.088C404.528,268.773 390.874,271.523 388.194,272.424C374.614,276.99 367.387,280.724 356.435,290.752C353.966,293.013 338.84,306.863 333.51,325.758C330.701,335.716 330.663,335.716 329.849,346.05C327.167,380.101 346.077,401.584 349.376,405.332C370.294,429.096 389.514,431.593 402.31,433.809C408.205,434.83 424.663,434.512 439.836,428.886C446.408,426.449 446.261,426.154 452.41,422.794C452.631,422.673 454.525,421.639 455.553,422.581C456.013,423.003 455.967,426.959 455.962,427.341C455.817,439.725 456.248,439.856 455.353,441.333C453.998,443.57 440.283,448.079 439.979,448.162C421.49,453.228 411.98,452.252 397.601,451.366C391.905,451.015 377.081,447.366 366.285,441.615C359.471,437.985 354.6,434.667 346.728,428.181C344.699,426.51 334.011,416.366 327.181,405.572C319.248,393.034 315.24,382.858 312.581,366.507L312.584,366.508Z" style="fill:white;"/>
        <path d="M857.031,182.658C897.296,182.658 897.277,182.541 900.774,182.658C903.566,182.751 904.215,182.504 904.929,185.226C904.978,185.413 905.026,199.01 905.02,199.189C905.012,199.438 904.949,201.317 903.729,202.025C902.887,202.514 902.805,202.457 844.53,202.457C820.999,202.457 820.249,202.759 819.521,200.786C819.175,199.849 819.213,199.824 819.213,86.72C819.213,39.796 819.111,39.606 819.943,38.648C821.031,37.395 825.748,37.717 828.905,37.717C903.16,37.717 903.299,37.651 903.95,38.214C904.901,39.035 905.483,39.538 905.047,53.883C905.039,54.142 904.979,56.126 903.81,56.871C902.951,57.418 902.844,57.315 846.092,57.322C843.529,57.322 839.138,56.462 838.836,60.209C838.802,60.635 838.807,106.631 838.833,106.988C838.849,107.221 838.973,108.974 840.148,109.601C841.043,110.079 841.114,110.012 871.092,110.012C888.922,110.012 889.272,109.77 890.467,111.243C891.2,112.146 891.345,112.325 891.093,125.772C891.064,127.291 891.108,129.107 888.382,129.529C887.852,129.611 843.586,129.548 842.974,129.568C840.164,129.658 839.543,129.413 838.764,132.106C838.705,132.31 838.714,133.343 838.714,158.596C838.714,180.737 838.519,181.013 839.775,182.13C840.504,182.779 843.182,182.66 857.03,182.66L857.031,182.658Z" style="fill:white;"/>
        <path d="M564.871,35.841C565.998,35.837 575.445,35.801 578.936,36.58C584.583,37.84 596.669,39.013 608.747,49.028C608.941,49.189 614.541,53.603 614.68,55.49C614.789,56.967 614.443,57.007 605.088,66.007C601.115,69.83 600.342,67.731 597.427,65.099C580.852,50.138 542.481,52.313 536.635,74.197C533.538,85.789 538.574,92.007 539.541,93.203C546.311,101.564 556.007,104.728 558.387,105.915C568.423,110.919 597.969,114.681 613.854,134.713C627.62,152.072 620.301,169.945 619.935,171.215C615.731,185.811 599.167,198.472 586.554,201.654C578.738,203.626 571.8,205.24 558.69,203.281C539.83,200.463 524.234,189.27 517.977,177.337C515.85,173.28 514.829,171.245 515.397,169.793C515.833,168.68 516.017,168.653 529.116,163.874C533.101,162.42 533.476,165.055 534.044,166.182C535.009,168.097 540.233,178.47 555.367,182.431C563.098,184.454 563.098,184.681 571.068,184.554C581.243,184.392 598.443,177.295 602.271,163.261C607.566,143.849 581.143,134.351 578.987,133.411C567.532,128.416 540.897,124.952 524.516,105.222C509.731,87.413 514.888,57.103 536.569,44.291C544.053,39.868 551.607,37.137 564.868,35.841L564.871,35.841Z" style="fill:white;"/>
        <path d="M1272.688,35.854C1273.815,35.846 1283.549,35.779 1286.768,36.464C1296.084,38.445 1307.969,39.799 1320.925,52.515C1325.38,56.888 1321.617,58.115 1317.096,62.436C1312.948,66.401 1311.205,68.953 1308.718,67.76C1308.444,67.629 1296.371,52.916 1271.161,55.969C1247.683,58.812 1245.144,72.935 1244.358,77.318C1241.601,92.7 1254.06,99.274 1259.953,102.716C1265.079,105.71 1275.885,109.376 1277.445,109.785C1284.26,111.572 1293.432,115.167 1294.797,115.702C1296.849,116.506 1309.284,121.379 1318.228,130.205C1321.937,133.865 1333.283,145.909 1330.027,164.771C1327.079,181.851 1312.301,199.922 1285.119,203.646C1266.69,206.17 1236.507,199.183 1225.036,174.545C1223.827,171.949 1222.663,171.9 1223.991,169.357C1224.511,168.36 1224.831,168.701 1237.005,164.041C1241.465,162.334 1241.457,164.627 1244.406,169.612C1246.353,172.903 1251.537,177.248 1255.397,179.051C1262.165,182.213 1262.203,182.106 1269.434,183.963C1272.819,184.832 1282.053,184.781 1285.233,183.857C1285.728,183.713 1291.367,182.075 1291.416,182.059C1296.742,180.34 1303.061,175.149 1303.21,175.013C1307.929,170.712 1313.735,161.345 1310.296,152.284C1306.546,142.403 1295.374,136.885 1289.521,134.345C1275.09,128.082 1251.917,124.923 1236.319,108.982C1235.089,107.725 1227.024,99.483 1225.377,89.923C1223.082,76.601 1226.874,66.809 1227.598,64.937C1237.325,39.816 1263.978,36.879 1272.689,35.853L1272.688,35.854Z" style="fill:white;"/>
        <path d="M146.103,36.01C154.008,36.182 153.932,36.757 161.788,37.833C168.053,38.691 182.433,43.723 183.569,46.108C184.587,48.247 184.068,48.353 184.171,61.722C184.174,62.109 184.205,66.14 183.728,66.535C181.718,68.199 179.276,63.883 168.129,59.717C152.126,53.736 140.413,55.051 129.03,57.605C115.276,60.691 104.185,71.04 102.394,72.711C92.833,81.632 83.706,93.581 81.766,116.387C81.216,122.857 82.76,136.459 87.131,145.908C94.74,162.357 106.063,170.269 109.844,173.092C113.881,176.106 124.51,181.486 131.946,182.539C143.544,184.18 143.626,185.422 155.37,183.146C160.449,182.162 160.648,182.87 169.682,179.31C175.294,177.098 179.96,173.985 180.244,173.786C181.812,172.687 181.776,172.656 182.018,172.611C182.219,172.574 183.771,172.286 184.188,173.967C184.191,173.979 184.177,190.949 184.123,191.455C183.794,194.507 182.241,195.96 169.726,199.842C156.434,203.965 151.513,202.701 146.065,203.765C145.974,203.783 143.492,205.653 124.365,201.615C119.141,200.512 112.375,197.298 111.374,196.823C109.987,196.164 104.387,194.194 95.668,187.264C94.19,186.089 82.62,177.675 73.114,161.464C58.163,135.968 57.795,97.382 78.424,70.735C83.899,63.663 87.349,59.55 97.368,51.946C99.469,50.352 111.036,41.573 127.322,38.171C128.066,38.015 128.107,38.324 136.707,36.66C140.575,35.911 144.575,36.042 146.102,36.011L146.103,36.01Z" style="fill:white;"/>
        <path d="M785.156,37.446C791.98,37.681 794.283,37.181 794.855,39.778C794.975,40.32 794.977,145.938 794.854,150.788C794.123,179.679 768.227,204.01 741.413,204.415C736.257,204.493 736.418,202.831 736.411,197.657C736.399,189.393 735.96,185.784 738.217,184.997C738.756,184.809 742.549,184.627 742.926,184.609C746.94,184.417 748.478,183.471 750.979,182.661C766.269,177.708 773.842,163.117 775.096,153.831C775.774,148.807 775.145,41.285 775.469,39.78C776.125,36.738 781.245,37.45 785.155,37.448L785.156,37.446Z" style="fill:white;"/>
        <path d="M993.193,109.195C987.041,110.827 986.972,110.647 952.344,110.645C950.641,110.645 946.083,110.958 944.965,109.748C944.067,108.776 944.181,108.565 944.181,66.406C944.181,60.817 943.769,59.255 945.683,57.905C946.321,57.455 946.395,57.43 980.469,57.444C985.992,57.446 995.03,56.395 1004.001,66.321C1009.786,72.722 1012.318,82.551 1009.667,91.248C1005.813,103.892 996.883,107.568 993.194,109.194L993.193,109.195Z" style="fill:rgb(247,179,27);"/>
        <path d="M219.576,320.305C218.451,320.361 212.637,320.651 205.494,320.461C201.032,320.342 201.832,317.492 201.831,308.594C201.827,259.32 201.816,259.293 202.092,258.492C202.665,256.827 205.144,256.729 205.448,256.717C222.238,256.054 227.079,258.074 228.811,258.797C259.24,271.495 254.124,316.4 219.576,320.305ZM220.997,314.158C220.138,314.214 211.593,314.769 210.235,314.354C207.617,313.555 207.9,312.927 207.872,310.17C207.803,303.231 208.012,275.73 207.776,267.969C207.631,263.194 208.707,262.591 211.68,262.525C218.756,262.369 229.599,261.001 238.802,273.861C246.563,284.706 244.425,302.437 230.07,311.059C227.203,312.781 221.745,313.991 220.996,314.158L220.997,314.158Z" style="fill:white;fill-opacity:0.98;"/>
        <path d="M260.157,320.532C259.142,320.393 258.099,320.648 257.084,320.509C256.869,320.48 254.564,320.236 254.27,317.92C254.178,317.196 254.221,296.343 254.233,294.53C254.248,292.155 254.19,292.159 254.217,264.843C254.22,261.544 253.484,257.255 256.99,256.728C257.488,256.653 283.21,256.656 283.638,256.717C286.725,257.155 286.469,259.776 286.434,260.127C286.134,263.196 281.337,262.629 280.469,262.629C261.771,262.629 260.705,262.198 260.09,264.827C259.953,265.412 259.797,282.261 260.19,283.582C261.098,286.638 262.411,285.141 277.325,285.511C282.297,285.635 280.899,289.991 279.91,290.681C278.347,291.772 266.796,291.091 263.271,291.279C260.566,291.423 260.137,292.912 259.989,294.516C259.965,294.77 259.945,311.299 260.006,311.738C260.042,311.994 260.31,313.921 261.869,314.373C263.226,314.767 282.566,314.446 283.628,314.595C286.575,315.01 287.277,318.219 285.447,319.888C284.632,320.631 284.468,320.544 260.157,320.531L260.157,320.532Z" style="fill:white;fill-opacity:0.99;"/>
    </g>
</svg>
